<svg version="1.1"
   xmlns="http://www.w3.org/2000/svg" xmlns:xlink="http://www.w3.org/1999/xlink" xmlns:a="http://ns.adobe.com/AdobeSVGViewerExtensions/3.0/"
   x="0px" y="0px" viewBox="0 0 569.9078979 118.996521"
   style="enable-background:new 0 0 569.9078979 118.996521;" xml:space="preserve">
<defs>
</defs>
<g>
  <path style="fill:#FFFFFF;" d="M19.4483356,30.1619816c0,10.727293,5.527422,14.9172153,18.2677898,18.4383869
    l18.2677879,5.0360947c19.782711,5.3636475,30.8443794,13.9072685,30.8443794,32.6732063
    c0,20.1170883-19.612114,32.6868515-42.4041977,32.6868515C21.625185,118.996521,2.0130734,108.1054535,0,83.2934723h15.9271641
    c1.6786976,15.4221878,13.0747414,21.795784,28.1557293,21.795784c15.0878181,0,26.8182373-6.3735962,26.8182373-18.4383926
    c0-9.7173386-5.3636475-14.9172134-17.2646675-18.2746048l-22.2871094-6.1961746
    C12.740366,56.9802132,3.8555474,46.921669,3.8555474,30.1619816C3.8555474,13.0610933,19.4483356,0,42.9091721,0
    c21.795784,0,39.0604477,10.2223186,41.0666962,33.5193787H68.0555267
    c-1.3443222-15.0946388-12.7403641-19.612112-25.1463547-19.612112
    C28.4969311,13.9072666,19.4483356,20.1034374,19.4483356,30.1619816z"/>
  <path style="fill:#FFFFFF;" d="M102.6556473,60.5013847C102.6556473,23.29706,117.9072342,0,149.7547455,0
    c21.959549,0,38.7192383,13.2385168,40.2273407,34.8568764h-15.9203339
    c-1.5081024-13.4022903-10.8979034-20.9496098-25.8151093-20.9496098c-15.9203491,0-27.9919586,11.5598183-27.9919586,27.9919567
    v35.1980743c0,15.9271622,13.0747375,27.9919586,29.0019073,27.9919586c15.0809937,0,25.1395264-6.3735962,26.6476288-21.795784
    h15.9271698c-1.5081024,21.4545822-19.1139679,35.7030487-42.411026,35.7030487
    C119.2515564,118.996521,102.6556473,96.040657,102.6556473,60.5013847z"/>
  <path style="fill:#FFFFFF;" d="M215.5388641,2.5112238h15.9203491v113.9740753h-15.9203491V2.5112238z"/>
  <path style="fill:#FFFFFF;" d="M259.8761292,2.5112252h74.793457v13.7434921h-74.793457V2.5112252z"/>
  <path style="fill:#FFFFFF;" d="M407.9616699,88.329567H363.210022l-9.389801,28.1557312h-16.4253235L376.7828979,2.5112238
    h17.7696533l39.5585938,113.9740753h-16.76651L407.9616699,88.329567z M367.3999329,75.2548218h36.3717957l-17.7696228-54.9739609
    h-0.6687622L367.3999329,75.2548218z"/>
  <path style="fill:#FFFFFF;" d="M444.5036621,2.5112238h41.0666809v13.0610933h-25.9857178v72.4160461h-15.0809631V2.5112238z"/>
  <path style="fill:#FFFFFF;" d="M535.2079468,0.4913265c18.1040039,0,32.352478,9.3897934,34.024353,30.0118523h-15.0809937
    c-1.1737061-13.9209137-9.7241821-17.9470596-19.7827148-17.9470596c-10.0516968,0-19.9464722,6.8785696-19.9464722,20.1170883
    v25.1395302c0,12.242218,9.0554199,20.1170883,20.1170654,20.1170883c11.0617065,0,19.277771-5.8686218,20.2808838-18.6021652
    h15.0878296c-2.3474731,21.1133881-17.5990601,30.666954-35.0343018,30.666954
    c-24.8051758,0-36.3718262-18.6021576-36.3718262-44.0828934C498.50177,18.4247398,511.9108887,0.4913265,535.2079468,0.4913265z"
    />
</g>
</svg>
